<svg width="26" height="26" viewBox="0 0 26 26" fill="none" xmlns="http://www.w3.org/2000/svg">
<path d="M21.8375 4.16241C19.7865 2.09803 17.0796 0.813922 14.1833 0.531458C11.287 0.248994 8.38296 0.985878 5.97176 2.61507C3.56055 4.24426 1.79332 6.66367 0.974731 9.45617C0.156142 12.2487 0.337495 15.2393 1.48753 17.9124C1.60739 18.1609 1.64672 18.4405 1.60003 18.7124L0.500026 23.9999C0.457646 24.2026 0.4663 24.4127 0.52521 24.6113C0.58412 24.8098 0.69144 24.9906 0.837526 25.1374C0.957281 25.2563 1.09987 25.3497 1.25669 25.412C1.41352 25.4743 1.58133 25.5042 1.75003 25.4999H2.00003L7.35003 24.4249C7.62194 24.3922 7.89767 24.431 8.15002 24.5374C10.8232 25.6874 13.8138 25.8688 16.6063 25.0502C19.3988 24.2316 21.8182 22.4644 23.4474 20.0532C25.0766 17.642 25.8134 14.7379 25.531 11.8416C25.2485 8.94536 23.9644 6.23839 21.9 4.18741L21.8375 4.16241ZM22.875 14.6124C22.6306 16.1049 22.0509 17.5225 21.1795 18.7585C20.308 19.9946 19.1676 21.0169 17.844 21.7485C16.5203 22.4801 15.048 22.9019 13.5378 22.9823C12.0276 23.0626 10.5188 22.7994 9.12502 22.2124C8.6307 22.0021 8.09969 21.8917 7.56253 21.8874C7.32787 21.8891 7.09376 21.91 6.86253 21.9499L3.33753 22.6624L4.05003 19.1374C4.19193 18.374 4.10045 17.5855 3.78753 16.8749C3.20052 15.4811 2.93728 13.9723 3.01764 12.4621C3.098 10.9519 3.51985 9.47959 4.25145 8.15597C4.98306 6.83235 6.00535 5.69191 7.2414 4.82047C8.47744 3.94903 9.89505 3.3693 11.3875 3.12491C12.9541 2.8678 14.5594 2.98737 16.0706 3.47373C17.5818 3.96009 18.9555 4.79926 20.0781 5.92183C21.2007 7.04439 22.0398 8.4181 22.5262 9.92931C23.0126 11.4405 23.1321 13.0458 22.875 14.6124Z" fill="#3D44F1"/>
</svg>
