<svg width="30" height="30" viewBox="0 0 30 30" fill="none" xmlns="http://www.w3.org/2000/svg">
<path d="M28.125 12.1582L25.7227 11.6309C25.5469 11.0645 25.3125 10.4883 25.0195 9.90234L26.3086 7.73438C26.4844 7.46094 26.6162 7.17285 26.7041 6.87012C26.792 6.56738 26.8066 6.25 26.748 5.91797C26.6895 5.58594 26.543 5.30273 26.3086 5.06836L24.9902 3.75C24.8145 3.57422 24.6045 3.44238 24.3604 3.35449C24.1162 3.2666 23.8721 3.22754 23.6279 3.2373C23.3838 3.24707 23.1445 3.29102 22.9102 3.36914C22.6758 3.44727 22.4609 3.54492 22.2656 3.66211L20.1562 5.00977L19.9219 4.89258L19.6875 4.77539L19.4531 4.67285L19.2041 4.57031L18.9551 4.46777L18.7061 4.37988L18.457 4.30664L17.9297 1.8457C17.832 1.37695 17.5977 0.952148 17.2266 0.571289C16.8555 0.19043 16.4258 0 15.9375 0H14.0625C13.5742 0 13.1689 0.185547 12.8467 0.556641C12.5244 0.927734 12.3047 1.36719 12.1875 1.875L11.5723 4.27734C11.2598 4.375 10.9521 4.4873 10.6494 4.61426C10.3467 4.74121 10.0488 4.88281 9.75586 5.03906L7.58789 3.66211C7.33398 3.48633 7.0459 3.36426 6.72363 3.2959C6.40137 3.22754 6.07422 3.22754 5.74219 3.2959C5.41016 3.36426 5.12695 3.51562 4.89258 3.75L3.54492 5.06836C3.21289 5.49805 3.06152 5.9375 3.09082 6.38672C3.12012 6.83594 3.27148 7.28516 3.54492 7.73438L4.92188 10.0195C4.64844 10.5859 4.43359 11.123 4.27734 11.6309L1.875 12.1582C1.38672 12.2559 0.952148 12.4854 0.571289 12.8467C0.19043 13.208 0 13.6426 0 14.1504V16.0254C0 16.4941 0.185547 16.8945 0.556641 17.2266C0.927734 17.5586 1.36719 17.7832 1.875 17.9004L4.30664 18.4863C4.46289 18.9746 4.66797 19.4727 4.92188 19.9805L3.54492 22.2656C3.27148 22.7148 3.12012 23.1641 3.09082 23.6133C3.06152 24.0625 3.21289 24.502 3.54492 24.9316L4.89258 26.25C5.2832 26.6016 5.73242 26.7725 6.24023 26.7627C6.74805 26.7529 7.19727 26.6113 7.58789 26.3379L9.75586 24.9609L10.1074 25.1367L10.4736 25.2979L10.8545 25.4443L11.2354 25.5908L11.6016 25.7227L12.1875 28.125C12.3047 28.6328 12.5293 29.0723 12.8613 29.4434C13.1934 29.8145 13.5938 30 14.0625 30H15.9375C16.2695 30 16.582 29.9072 16.875 29.7217C17.168 29.5361 17.4023 29.3018 17.5781 29.0186C17.7539 28.7354 17.8711 28.4375 17.9297 28.125L18.457 25.6934C19.043 25.5176 19.6094 25.2832 20.1562 24.9902L22.2656 26.3379C22.6758 26.6113 23.1348 26.7529 23.6426 26.7627C24.1504 26.7725 24.5996 26.6016 24.9902 26.25L26.3086 24.9316C26.6406 24.502 26.792 24.0625 26.7627 23.6133C26.7334 23.1641 26.582 22.7148 26.3086 22.2656L25.0195 20.0977C25.293 19.5703 25.5176 19.0332 25.6934 18.4863L28.125 17.9004C28.6328 17.7832 29.0723 17.5586 29.4434 17.2266C29.8145 16.8945 30 16.4941 30 16.0254V14.1504C30 13.3887 29.5996 12.8027 28.7988 12.3926C28.584 12.2754 28.3594 12.1973 28.125 12.1582ZM28.125 15.8789C28.1055 15.8984 28.0762 15.918 28.0371 15.9375C27.998 15.957 27.9492 15.9766 27.8906 15.9961L27.7148 16.0547L24.2285 16.9336L23.9062 17.9004C23.8281 18.1348 23.7451 18.3643 23.6572 18.5889C23.5693 18.8135 23.4668 19.0332 23.3496 19.248L22.8809 20.1855L24.7266 23.2324C24.8242 23.4082 24.8828 23.5645 24.9023 23.7012L23.6719 24.9316C23.5938 24.9121 23.5254 24.8877 23.4668 24.8584C23.4082 24.8291 23.3691 24.8047 23.3496 24.7852L20.2734 22.8223L19.3066 23.3203C19.1504 23.3984 18.9941 23.4717 18.8379 23.54L18.3691 23.7451L17.9004 23.9062L16.875 24.2578L16.1133 27.7441C16.0938 27.8223 16.0645 27.8955 16.0254 27.9639C15.9863 28.0322 15.9473 28.0859 15.9082 28.125H14.209C14.1309 28.0078 14.0723 27.8711 14.0332 27.7148L13.1543 24.2578L12.1582 23.9355C12.0996 23.916 12.0459 23.8965 11.9971 23.877C11.9482 23.8574 11.8945 23.8379 11.8359 23.8184L11.6602 23.7598L11.4844 23.6865L11.3086 23.6133L11.1328 23.54L10.9717 23.4668L10.8105 23.3936L10.6348 23.291L9.66797 22.793L6.5918 24.7559C6.45508 24.8535 6.32812 24.9023 6.21094 24.9023L4.98047 23.7012C5 23.5645 5.05859 23.418 5.15625 23.2617L7.06055 20.0684L6.62109 19.1602C6.40625 18.7305 6.23047 18.3203 6.09375 17.9297L5.77148 16.9336L2.34375 16.0547C2.14844 16.0156 1.99219 15.957 1.875 15.8789V14.1504C1.89453 14.1504 1.91895 14.1406 1.94824 14.1211C1.97754 14.1016 2.0166 14.0771 2.06543 14.0479C2.11426 14.0186 2.1582 14.0039 2.19727 14.0039L5.74219 13.2129L6.06445 12.1875C6.18164 11.7773 6.35742 11.3281 6.5918 10.8398L7.06055 9.93164L5.15625 6.76758C5.11719 6.68945 5.07812 6.60645 5.03906 6.51855C5 6.43066 4.98047 6.35742 4.98047 6.29883L6.21094 5.06836L6.5332 5.21484L9.66797 7.20703L10.6348 6.70898C11.123 6.45508 11.6309 6.24023 12.1582 6.06445L13.1543 5.74219L14.0039 2.34375C14.043 2.14844 14.1113 1.99219 14.209 1.875H15.9375L15.9668 1.96289C15.9863 1.98242 16.001 2.00195 16.0107 2.02148C16.0205 2.04102 16.0303 2.07031 16.04 2.10938C16.0498 2.14844 16.0645 2.17773 16.084 2.19727L16.8457 5.74219L17.8711 6.09375C18.3594 6.25 18.8379 6.44531 19.3066 6.67969L20.2734 7.17773L23.291 5.24414C23.4277 5.16602 23.5547 5.12695 23.6719 5.12695L24.9023 6.32812C24.8828 6.36719 24.8633 6.42578 24.8438 6.50391C24.8242 6.58203 24.7852 6.66016 24.7266 6.73828L22.8809 9.81445L23.3496 10.752C23.4863 11.0059 23.6035 11.25 23.7012 11.4844C23.7988 11.7188 23.877 11.9531 23.9355 12.1875L24.2578 13.2129L27.7441 14.0039C27.959 14.043 28.0957 14.1113 28.1543 14.209L28.125 15.8789ZM15.0146 9.375C13.4619 9.375 12.1338 9.92188 11.0303 11.0156C9.92676 12.1094 9.375 13.4375 9.375 15C9.375 16.5625 9.92676 17.8906 11.0303 18.9844C12.1338 20.0781 13.457 20.625 15 20.625C15.7812 20.625 16.5186 20.4785 17.2119 20.1855C17.9053 19.8926 18.5059 19.4922 19.0137 18.9844C19.5215 18.4766 19.9219 17.876 20.2148 17.1826C20.5078 16.4893 20.6543 15.7617 20.6543 15C20.6543 13.4375 20.1025 12.1094 18.999 11.0156C17.8955 9.92188 16.5674 9.375 15.0146 9.375ZM15 18.75C13.9648 18.75 13.0811 18.3838 12.3486 17.6514C11.6162 16.9189 11.25 16.0352 11.25 15C11.25 13.9648 11.6162 13.0811 12.3486 12.3486C13.0811 11.6162 13.9648 11.25 15 11.25C16.0352 11.25 16.9189 11.6162 17.6514 12.3486C18.3838 13.0811 18.75 13.9648 18.75 15C18.75 16.0352 18.3838 16.9189 17.6514 17.6514C16.9189 18.3838 16.0352 18.75 15 18.75Z" fill="#3D44F1"/>
</svg>
