<svg width="30" height="30" viewBox="0 0 30 30" fill="none" xmlns="http://www.w3.org/2000/svg">
<path d="M26.8345 11.3541C27.2906 10.1222 27.4223 8.9475 27.0947 7.89328C26.9437 7.90688 26.7872 7.91391 26.6269 7.91391C21.8259 7.91391 13.3406 1.87781 12.6984 0.9375C10.0523 4.79203 4.50607 7.75547 1.99919 11.0789C0.984819 12.4238 0.477632 13.4245 1.48685 14.963L12.0567 28.5441C12.5334 29.1895 13.4676 29.242 14.1328 28.6467C14.1328 28.6467 22.8009 17.5237 29.0629 14.0822C28.5923 13.163 27.809 12.2456 26.8345 11.3541V11.3541ZM11.8725 25.6659L11.8284 25.6964L11.7886 25.7311C11.627 25.876 11.4835 26.0398 11.3611 26.2191L2.20263 14.452C1.5431 13.4316 1.73013 12.8944 2.70091 11.6081C3.80201 10.1489 5.56169 8.73234 7.42498 7.23281C9.36185 5.67375 11.3569 4.06875 12.8222 2.2425C15.2409 4.23281 22.0064 8.62734 26.384 8.78812C26.909 13.943 16.2206 22.6331 11.8725 25.6659" fill="#3D44F1"/>
<path d="M9.3717 6.63646L21.1865 15.8943L21.6075 15.5174L9.6792 6.36084L9.3717 6.63646Z" fill="#3D44F1"/>
<path d="M13.2221 11.5646L8.38647 7.51831C8.38647 7.51831 6.70365 8.59269 4.66553 10.9491L8.95553 15.3844L13.2221 11.5646Z" fill="#3D44F1"/>
<path d="M2.62781 13.1531L11.7534 24.3379L13.4386 22.83L3.70921 11.7061C3.70921 11.7061 2.86125 12.165 2.62781 13.1531Z" fill="#3D44F1"/>
<path d="M12.8531 13.7945L18.1542 18.6085L19.8385 17.1005L14.3189 12.4824L12.8531 13.7945Z" fill="#3D44F1"/>
<path d="M9.92151 16.419L14.7857 21.624L16.4695 20.1165L11.3873 15.1069L9.92151 16.419Z" fill="#3D44F1"/>
<path d="M13.058 5.04181L12.3432 7.04899L12.7913 7.37524L15.0671 5.33759L14.6218 5.05728L13.0538 6.46118L13.7471 4.50462L13.2821 4.21118L11.1132 6.15274L11.5018 6.4354L13.058 5.04181Z" fill="#3D44F1"/>
<path d="M15.0057 8.99012L15.4397 8.60059L14.1155 7.65934L14.716 7.12215L15.8921 7.92746L16.3097 7.55293L15.1205 6.75887L15.6165 6.31543L16.9332 7.16715L17.3607 6.78512L15.5401 5.63574L13.2347 7.69965L15.0057 8.99012Z" fill="#3D44F1"/>
<path d="M16.4161 10.0175L18.2156 8.9277L18.8048 8.55458L18.4139 9.05989L17.2561 10.6307L17.8153 11.038L21.2784 9.25724L20.6212 8.84239L18.7223 9.92895L18.2376 10.2224L18.5629 9.79442L19.6884 8.25364L19.0565 7.8552L17.3011 8.94317L16.8347 9.23802L17.1557 8.82974L18.2189 7.32646L17.6264 6.95239L15.9103 9.64911L16.4161 10.0175Z" fill="#3D44F1"/>
<path d="M22.9251 10.1743C22.499 9.90667 22.1011 9.7787 21.7289 9.7862C21.3595 9.79417 21.0567 9.90526 20.8181 10.119C20.5561 10.3534 20.4679 10.5967 20.5542 10.8489C20.6048 11.0003 20.7661 11.2192 21.0412 11.5089L21.3258 11.8079C21.4954 11.9842 21.6047 12.1285 21.6525 12.2392C21.6994 12.3512 21.6764 12.4492 21.584 12.5317C21.4261 12.6728 21.2203 12.6995 20.9676 12.6132C20.8105 12.5537 20.6625 12.4724 20.5279 12.3718C20.2608 12.1815 20.1309 11.9982 20.1342 11.8215C20.1361 11.7249 20.189 11.6143 20.2926 11.4896L19.6781 11.0612C19.4011 11.3092 19.2961 11.5857 19.3654 11.8928C19.4353 12.2026 19.6729 12.5082 20.0854 12.8092C20.4965 13.1106 20.9058 13.2718 21.3079 13.2896C21.7144 13.307 22.049 13.2001 22.3069 12.9681C22.56 12.7421 22.65 12.4993 22.5778 12.241C22.5319 12.0756 22.4029 11.8829 22.1948 11.6635L21.7284 11.1714C21.5508 10.9857 21.4448 10.8568 21.4087 10.7832C21.3525 10.6712 21.3726 10.5723 21.4697 10.486C21.5751 10.3914 21.7101 10.3529 21.8751 10.3693C22.0425 10.3857 22.2169 10.4528 22.3992 10.5699C22.5647 10.6768 22.6814 10.7874 22.7465 10.9018C22.8473 11.0743 22.8192 11.2407 22.6645 11.3987L23.3569 11.8548C23.6447 11.5773 23.7347 11.2834 23.6273 10.9745C23.5223 10.6684 23.2875 10.4012 22.9251 10.1743Z" fill="#3D44F1"/>
</svg>
