<svg width="25" height="25" viewBox="0 0 25 25" fill="none" xmlns="http://www.w3.org/2000/svg">
<path d="M12.8906 0.390625C5.98538 0.390625 0.390625 5.98538 0.390625 12.8906C0.390625 19.7959 5.98538 25.3906 12.8906 25.3906C19.7959 25.3906 25.3906 19.7959 25.3906 12.8906C25.3906 5.98538 19.7959 0.390625 12.8906 0.390625ZM12.8906 5.22933C15.3402 5.22933 17.3261 7.21522 17.3261 9.66482C17.3261 12.1144 15.3402 14.1003 12.8906 14.1003C10.441 14.1003 8.45514 12.1144 8.45514 9.66482C8.45514 7.21522 10.441 5.22933 12.8906 5.22933ZM12.8906 22.568C9.93196 22.568 7.28075 21.2273 5.50655 19.1305C6.45413 17.3463 8.30897 16.1164 10.4713 16.1164C10.5922 16.1164 10.7132 16.1366 10.8291 16.1719C11.4844 16.3836 12.1699 16.5197 12.8906 16.5197C13.6114 16.5197 14.3019 16.3836 14.9521 16.1719C15.068 16.1366 15.189 16.1164 15.31 16.1164C17.4723 16.1164 19.3271 17.3463 20.2747 19.1305C18.5005 21.2273 15.8493 22.568 12.8906 22.568Z" fill="#3D44F1"/>
</svg>
